# xmcd
#
# Track frame offsets:
#	150
#	11102
#	22571
#	32761
#	45123
#	52924
#	63669
#	78151
#	91407
#	102826
#	116988
#	127631
#	137768
#	147052
#	159060
#	170142
#	180492
#
# Disc length: 2570 seconds
#
# Revision: 2
# Processed by: cddbd v1.5.1PL2 Copyright (c) Steve Scherf et al.
# Submitted via: audiograbber 1.83.01
#
DISCID=c70a0811
DTITLE=Jim Reeves - Legendary [Disc 1]
DYEAR=1999
DGENRE=Country
TTITLE0=I Guess I'm Crazy
TTITLE1=Adios Amigo
TTITLE2=Is It Really Over
TTITLE3=Pride Goes Before A Fall
TTITLE4=You Are My Love
TTITLE5=Am I That Easy To Forget
TTITLE6=Guilty
TTITLE7=When You Are Gone
TTITLE8=Anna Marie
TTITLE9=This Is It
TTITLE10=You're The Only Good Thing (That's Happened To Me)
TTITLE11=I Heard A Heart Break Last Night
TTITLE12=You're Free To Go
TTITLE13=Welcome To My World
TTITLE14=That's When I See The Blues (In Your Pretty Brown Eyes)
TTITLE15=The Flowers, The Sunset, The Trees
TTITLE16=Wild Rose
EXTD=
EXTT0=
EXTT1=
EXTT2=
EXTT3=
EXTT4=
EXTT5=
EXTT6=
EXTT7=
EXTT8=
EXTT9=
EXTT10=
EXTT11=
EXTT12=
EXTT13=
EXTT14=
EXTT15=
EXTT16=
PLAYORDER=
